<svg width="181" height="32" viewBox="0 0 181 32" fill="none" xmlns="http://www.w3.org/2000/svg">
<rect width="31.4014" height="31.4014" rx="5" fill="#727B5E"/>
<path d="M16.4795 21.658V7.47949H18.1164V13.9517H18.1668C18.2004 13.8678 18.2759 13.6915 18.3935 13.4229C18.5278 13.1543 18.7292 12.8688 18.9979 12.5666C19.2665 12.2476 19.6275 11.979 20.0808 11.7607C20.5341 11.5257 21.1049 11.4082 21.7933 11.4082C22.6663 11.4082 23.3631 11.5761 23.8835 11.9118C24.404 12.2308 24.7902 12.659 25.042 13.1962C25.3106 13.7167 25.4869 14.2791 25.5709 14.8835C25.6548 15.488 25.6968 16.0588 25.6968 16.596V21.658H24.1102V16.596C24.1102 15.488 23.9171 14.5897 23.531 13.9014C23.1616 13.213 22.4313 12.8688 21.34 12.8688C20.5677 12.8688 19.9465 13.0535 19.4764 13.4229C19.0063 13.7755 18.6621 14.2539 18.4438 14.8584C18.2256 15.446 18.1164 16.0924 18.1164 16.7975V21.658H16.4795Z" fill="#F1EFED"/>
<path d="M8.3686 21.658H6.75684V7.47949H8.3686V13.6999H16.4274V7.47949H18.014V21.658H16.4274V15.0095H8.3686V21.658Z" fill="#F1EFED"/>
<path d="M176.887 13.7428V10.7433L174.036 5.38281H175.417L177.526 9.6296L179.619 5.38281H181L178.12 10.7284V13.7428H176.887Z" fill="#64714F"/>
<path d="M166.983 6.45193V5.38281H173.368V6.45193H170.8V13.7428H169.567V6.45193H166.983Z" fill="#64714F"/>
<path d="M165.85 12.6736V13.7428H162.36V12.6736H163.504V6.45193H162.36V5.38281H165.85V6.45193H164.721V12.6736H165.85Z" fill="#64714F"/>
<path d="M155.489 13.7428V5.38281H156.722V12.6736H161.102V13.7428H155.489Z" fill="#64714F"/>
<path d="M146.583 13.7428L149.389 5.38281H151.424L154.29 13.7428H152.968L152.166 11.2481H148.692L147.89 13.7428H146.583ZM150.429 5.90252L149.018 10.2681H151.84L150.429 5.90252Z" fill="#64714F"/>
<path d="M140.215 6.45193V5.38281H146.6V6.45193H144.031V13.7428H142.799V6.45193H140.215Z" fill="#64714F"/>
<path d="M139.082 12.6736V13.7428H135.593V12.6736H136.736V6.45193H135.593V5.38281H139.082V6.45193H137.954V12.6736H139.082Z" fill="#64714F"/>
<path d="M129.501 13.7428H128.269V5.38281H131.535C132.456 5.38281 133.169 5.6105 133.674 6.06586C134.178 6.52123 134.431 7.20428 134.431 8.11501C134.431 8.93665 134.169 9.57516 133.644 10.0305C133.129 10.4859 132.426 10.7136 131.535 10.7136H129.501V13.7428ZM131.387 6.40739H129.501V9.77809H131.387C131.981 9.77809 132.446 9.6395 132.783 9.36232C133.129 9.08514 133.302 8.66442 133.302 8.10016C133.302 7.51611 133.134 7.09044 132.797 6.82316C132.461 6.54598 131.991 6.40739 131.387 6.40739Z" fill="#64714F"/>
<path d="M123.413 13.921C122.81 13.921 122.23 13.8269 121.676 13.6389C121.122 13.4409 120.666 13.134 120.31 12.7182C119.963 12.2926 119.785 11.7431 119.775 11.07H121.023C121.023 11.1096 121.038 11.2234 121.067 11.4115C121.107 11.5897 121.201 11.7877 121.349 12.0055C121.508 12.2134 121.755 12.3965 122.092 12.5549C122.428 12.7133 122.899 12.7925 123.502 12.7925C123.988 12.7925 124.369 12.7232 124.646 12.5846C124.933 12.446 125.131 12.2827 125.24 12.0946C125.359 11.9065 125.423 11.7382 125.433 11.5897C125.433 11.2828 125.334 11.0353 125.136 10.8473C124.948 10.6592 124.69 10.5107 124.364 10.4018C124.037 10.283 123.676 10.1791 123.28 10.09C122.894 9.99098 122.508 9.88703 122.122 9.77814C121.735 9.65935 121.379 9.50591 121.052 9.31783C120.736 9.12974 120.483 8.88721 120.295 8.59023C120.117 8.28335 120.043 7.89233 120.072 7.41716C120.102 6.73411 120.424 6.19955 121.038 5.81348C121.661 5.42741 122.463 5.23438 123.443 5.23438C124.017 5.23438 124.552 5.33832 125.047 5.5462C125.542 5.75409 125.938 6.06591 126.235 6.48168C126.532 6.89745 126.68 7.41716 126.68 8.04082H125.477C125.477 7.69434 125.403 7.41716 125.255 7.20928C125.106 6.9915 124.918 6.82321 124.69 6.70442C124.463 6.58563 124.225 6.50643 123.978 6.46683C123.73 6.41734 123.507 6.39259 123.309 6.39259C122.745 6.39259 122.28 6.49653 121.914 6.70442C121.557 6.9123 121.379 7.19443 121.379 7.5508C121.369 7.86758 121.463 8.12001 121.661 8.3081C121.859 8.49619 122.122 8.64467 122.448 8.75357C122.775 8.86246 123.131 8.96145 123.517 9.05055C123.913 9.13964 124.304 9.23863 124.69 9.34752C125.086 9.45642 125.443 9.6049 125.76 9.79299C126.086 9.97118 126.339 10.2187 126.517 10.5354C126.705 10.8423 126.789 11.2333 126.769 11.7085C126.74 12.1738 126.576 12.5747 126.279 12.9113C125.992 13.2379 125.601 13.4904 125.106 13.6686C124.611 13.8368 124.047 13.921 123.413 13.921Z" fill="#64714F"/>
<path d="M114.736 13.9507C113.4 13.9507 112.38 13.5597 111.677 12.7776C110.974 11.9857 110.623 10.9215 110.623 9.58511C110.623 8.70407 110.772 7.94183 111.069 7.29837C111.375 6.64502 111.831 6.14016 112.435 5.78378C113.048 5.41751 113.816 5.23438 114.736 5.23438C116.073 5.23438 117.087 5.63035 117.78 6.42229C118.483 7.20433 118.834 8.2586 118.834 9.58511C118.834 10.4463 118.676 11.2086 118.359 11.8718C118.052 12.5252 117.592 13.035 116.978 13.4013C116.375 13.7675 115.627 13.9507 114.736 13.9507ZM114.721 12.7628C115.682 12.7628 116.404 12.4658 116.889 11.8718C117.374 11.2779 117.617 10.5156 117.617 9.58511C117.617 8.65457 117.374 7.89233 116.889 7.29837C116.414 6.69452 115.691 6.39259 114.721 6.39259C113.771 6.39259 113.048 6.67967 112.553 7.25383C112.068 7.82799 111.826 8.60508 111.826 9.58511C111.826 10.1989 111.93 10.7483 112.138 11.2333C112.346 11.7085 112.662 12.0847 113.088 12.3619C113.524 12.6291 114.068 12.7628 114.721 12.7628Z" fill="#64714F"/>
<path d="M103.808 13.7428H102.575V5.38281H103.808V8.97625H108.173V5.38281H109.391V13.7428H108.173V9.94143H103.808V13.7428Z" fill="#64714F"/>
<path d="M94.3324 13.7428V10.7433L91.4814 5.38281H92.8624L94.9709 9.6296L97.0646 5.38281H98.4456L95.5649 10.7284V13.7428H94.3324Z" fill="#64714F"/>
<path d="M89.3255 5.38281H90.5876V13.7428H88.2564L84.7372 5.93222H84.7075V13.7428H83.4453V5.38281H85.6281L89.2958 13.1933H89.3255V5.38281Z" fill="#64714F"/>
<path d="M78.0038 13.9507C76.6674 13.9507 75.6477 13.5597 74.9449 12.7776C74.242 11.9857 73.8906 10.9215 73.8906 9.58511C73.8906 8.70407 74.0391 7.94183 74.3361 7.29837C74.643 6.64502 75.0983 6.14016 75.7022 5.78378C76.3159 5.41751 77.0831 5.23438 78.0038 5.23438C79.3402 5.23438 80.3549 5.63035 81.0478 6.42229C81.7506 7.20433 82.1021 8.2586 82.1021 9.58511C82.1021 10.4463 81.9437 11.2086 81.6269 11.8718C81.32 12.5252 80.8597 13.035 80.246 13.4013C79.6421 13.7675 78.8947 13.9507 78.0038 13.9507ZM77.9889 12.7628C78.9492 12.7628 79.6718 12.4658 80.1569 11.8718C80.6419 11.2779 80.8845 10.5156 80.8845 9.58511C80.8845 8.65457 80.6419 7.89233 80.1569 7.29837C79.6817 6.69452 78.9591 6.39259 77.9889 6.39259C77.0386 6.39259 76.3159 6.67967 75.821 7.25383C75.3359 7.82799 75.0934 8.60508 75.0934 9.58511C75.0934 10.1989 75.1973 10.7483 75.4052 11.2333C75.6131 11.7085 75.9299 12.0847 76.3555 12.3619C76.7911 12.6291 77.3356 12.7628 77.9889 12.7628Z" fill="#64714F"/>
<path d="M63.7832 13.7428V5.38281H65.9214L68.2676 13.1933H68.2973L70.5989 5.38281H72.7371V13.7428H71.4749L71.5492 5.96192H71.5195L69.1734 13.7428H67.3469L65.0157 5.96192H64.986L65.0454 13.7428H63.7832Z" fill="#64714F"/>
<path d="M55.7363 13.7428V5.38281H58.6616C59.7307 5.38281 60.5573 5.561 61.1413 5.91737C61.7353 6.26385 62.0323 6.89245 62.0323 7.80319C62.0323 8.43674 61.8689 8.96635 61.5423 9.39202C61.2255 9.81769 60.7454 10.0305 60.1019 10.0305C60.488 10.0305 60.7751 10.1147 60.9631 10.283C61.1512 10.4512 61.2799 10.6641 61.3492 10.9215C61.4185 11.1689 61.4631 11.4263 61.4829 11.6936C61.5027 11.9609 61.5324 12.2034 61.572 12.4212C61.6115 12.639 61.6907 12.7974 61.8095 12.8964C61.9283 12.9855 62.1313 12.9756 62.4183 12.8667V13.6091C62.2797 13.7279 62.0966 13.8071 61.8689 13.8467C61.6511 13.8962 61.4334 13.8813 61.2156 13.8021C60.9978 13.7329 60.8097 13.5844 60.6513 13.3567C60.5028 13.1191 60.4286 12.7776 60.4286 12.3321C60.4286 11.8074 60.3989 11.3966 60.3395 11.0996C60.2801 10.8027 60.1415 10.5849 59.9237 10.4463C59.7059 10.3077 59.3644 10.2285 58.8991 10.2087C58.4339 10.179 57.7954 10.179 56.9836 10.2087V13.7428H55.7363ZM56.9836 9.28808H58.7061C59.211 9.28808 59.6267 9.25838 59.9534 9.19898C60.2801 9.12969 60.5226 8.99605 60.681 8.79806C60.8493 8.60008 60.9334 8.29815 60.9334 7.89228C60.9334 7.42701 60.8345 7.09044 60.6365 6.88255C60.4385 6.67467 60.1465 6.54598 59.7604 6.49648C59.3842 6.43709 58.9239 6.40739 58.3794 6.40739H56.9836V9.28808Z" fill="#64714F"/>
<path d="M46.9199 13.7428L49.7264 5.38281H51.7607L54.6265 13.7428H53.305L52.5031 11.2481H49.0285L48.2266 13.7428H46.9199ZM50.7658 5.90252L49.3551 10.2681H52.1764L50.7658 5.90252Z" fill="#64714F"/>
<path d="M40.1192 13.7428H38.8867V5.38281H40.1192V8.97625H44.4848V5.38281H45.7024V13.7428H44.4848V9.94143H40.1192V13.7428Z" fill="#64714F"/>
<path d="M175.737 29.7238V29.0526H176.48C176.656 29.0526 176.802 29.0053 176.917 28.9106C177.032 28.8245 177.173 28.6094 177.341 28.2652L177.911 27.0648L175.79 22.1211H176.678L178.335 26.1871L180.098 22.1211H181L178.11 28.3814C177.933 28.7686 177.774 29.0569 177.633 29.2462C177.5 29.4441 177.35 29.5732 177.182 29.6334C177.014 29.6937 176.802 29.7238 176.546 29.7238H175.737Z" fill="black"/>
<path d="M170.365 27.3746V22.1211H171.094L171.24 23.4248H171.267C171.275 23.3818 171.315 23.2914 171.386 23.1537C171.457 23.016 171.563 22.8697 171.704 22.7149C171.854 22.5514 172.049 22.4137 172.287 22.3018C172.526 22.1813 172.831 22.1211 173.202 22.1211C173.67 22.1211 174.037 22.2028 174.302 22.3663C174.576 22.5298 174.779 22.7493 174.912 23.0246C175.045 23.2914 175.129 23.5797 175.164 23.8895C175.199 24.1992 175.217 24.4961 175.217 24.7801V27.3746H174.395V24.7801C174.395 24.2122 174.293 23.7518 174.09 23.399C173.896 23.0462 173.507 22.8697 172.924 22.8697C172.526 22.8697 172.199 22.9644 171.943 23.1537C171.695 23.3344 171.514 23.5797 171.399 23.8895C171.293 24.1906 171.24 24.5219 171.24 24.8834V27.3746H170.365Z" fill="black"/>
<path d="M166.602 27.4916C166.107 27.4916 165.701 27.3754 165.383 27.1431C165.064 26.9021 164.826 26.5794 164.667 26.175C164.517 25.7705 164.441 25.3102 164.441 24.7939C164.441 24.0022 164.618 23.3525 164.972 22.8448C165.334 22.3285 165.877 22.0703 166.602 22.0703C166.973 22.0703 167.283 22.1349 167.53 22.2639C167.786 22.3844 167.99 22.535 168.14 22.7157C168.299 22.8964 168.414 23.0685 168.484 23.232H168.498V22.1219H169.373V27.3754H168.644L168.511 26.3557H168.484C168.405 26.5278 168.29 26.7042 168.14 26.8849C167.99 27.057 167.786 27.2033 167.53 27.3238C167.283 27.4357 166.973 27.4916 166.602 27.4916ZM166.934 26.7558C167.481 26.7558 167.875 26.5794 168.113 26.2266C168.361 25.8738 168.484 25.4005 168.484 24.8068C168.484 24.17 168.356 23.6838 168.1 23.3482C167.853 23.0126 167.464 22.8448 166.934 22.8448C166.35 22.8448 165.93 23.0341 165.674 23.4127C165.427 23.7827 165.303 24.2431 165.303 24.7939C165.303 25.3704 165.431 25.8437 165.687 26.2137C165.944 26.5751 166.359 26.7558 166.934 26.7558Z" fill="black"/>
<path d="M161.424 27.5036C161.08 27.5036 160.784 27.4477 160.536 27.3358C160.297 27.2154 160.103 27.0777 159.953 26.9228C159.803 26.7679 159.688 26.6216 159.608 26.4839C159.537 26.3462 159.493 26.2559 159.476 26.2129H159.449V29.5431H158.574V22.1211H159.303L159.449 23.4377H159.476C159.493 23.3947 159.537 23.3043 159.608 23.1666C159.679 23.0289 159.785 22.8784 159.926 22.7149C160.077 22.5514 160.271 22.4137 160.51 22.3018C160.757 22.1813 161.062 22.1211 161.424 22.1211C161.946 22.1211 162.379 22.2373 162.723 22.4696C163.077 22.7019 163.342 23.0246 163.519 23.4377C163.704 23.8421 163.797 24.3068 163.797 24.8317C163.797 25.6148 163.594 26.2559 163.187 26.755C162.781 27.2541 162.193 27.5036 161.424 27.5036ZM161.252 26.7679C161.667 26.7679 161.999 26.6732 162.246 26.4839C162.502 26.2946 162.684 26.0537 162.79 25.7611C162.904 25.4599 162.962 25.1458 162.962 24.8188C162.962 24.4832 162.9 24.1691 162.776 23.8766C162.653 23.584 162.458 23.3473 162.193 23.1666C161.937 22.9773 161.597 22.8827 161.172 22.8827C160.66 22.8827 160.249 23.0591 159.94 23.4119C159.63 23.7561 159.476 24.2251 159.476 24.8188C159.476 25.4212 159.639 25.8988 159.966 26.2516C160.293 26.5958 160.722 26.7679 161.252 26.7679Z" fill="black"/>
<path d="M149.665 27.3746V22.1211H150.394L150.447 23.4248H150.474C150.491 23.3645 150.531 23.2656 150.593 23.1279C150.655 22.9816 150.752 22.831 150.885 22.6761C151.017 22.5212 151.189 22.3922 151.402 22.2889C151.614 22.177 151.883 22.1211 152.21 22.1211C152.705 22.1211 153.067 22.2545 153.297 22.5212C153.536 22.788 153.695 23.0892 153.774 23.4248H153.801C153.827 23.3645 153.876 23.2656 153.947 23.1279C154.017 22.9816 154.123 22.831 154.265 22.6761C154.406 22.5212 154.587 22.3922 154.808 22.2889C155.038 22.177 155.316 22.1211 155.643 22.1211C155.988 22.1211 156.271 22.1899 156.492 22.3276C156.713 22.4567 156.881 22.6331 156.996 22.8568C157.119 23.072 157.208 23.3 157.261 23.541C157.314 23.7819 157.345 24.0142 157.353 24.238C157.362 24.4617 157.367 24.6424 157.367 24.7801V27.3746H156.624V24.7801C156.624 24.6424 156.616 24.466 156.598 24.2509C156.58 24.0358 156.536 23.8249 156.465 23.6184C156.395 23.4033 156.271 23.2269 156.094 23.0892C155.926 22.9429 155.683 22.8697 155.365 22.8697C155.012 22.8697 154.729 22.9644 154.517 23.1537C154.305 23.343 154.15 23.5926 154.053 23.9024C153.956 24.2036 153.907 24.5305 153.907 24.8834V27.3746H153.165V24.7801C153.165 24.6424 153.156 24.466 153.138 24.2509C153.12 24.0358 153.076 23.8249 153.006 23.6184C152.935 23.4033 152.811 23.2269 152.634 23.0892C152.466 22.9429 152.223 22.8697 151.905 22.8697C151.552 22.8697 151.269 22.9644 151.057 23.1537C150.845 23.343 150.69 23.5926 150.593 23.9024C150.496 24.2036 150.447 24.5305 150.447 24.8834V27.3746H149.665Z" fill="black"/>
<path d="M146.045 27.5039C145.179 27.5039 144.53 27.2543 144.097 26.7552C143.672 26.2475 143.46 25.6021 143.46 24.819C143.451 24.0274 143.663 23.382 144.097 22.8829C144.538 22.3752 145.188 22.117 146.045 22.1084C146.893 22.1084 147.534 22.3579 147.967 22.8571C148.409 23.3475 148.63 24.0015 148.63 24.819C148.63 25.3267 148.537 25.7828 148.352 26.1873C148.166 26.5917 147.883 26.9144 147.503 27.1553C147.123 27.3877 146.637 27.5039 146.045 27.5039ZM146.045 26.781C146.505 26.781 146.858 26.6821 147.106 26.4841C147.362 26.2862 147.539 26.0367 147.636 25.7355C147.742 25.4257 147.795 25.1116 147.795 24.7932C147.795 24.4748 147.742 24.1607 147.636 23.851C147.539 23.5412 147.362 23.2873 147.106 23.0894C146.858 22.8915 146.505 22.7925 146.045 22.7925C145.586 22.7925 145.228 22.8915 144.971 23.0894C144.724 23.2873 144.547 23.5412 144.441 23.851C144.344 24.1607 144.295 24.4748 144.295 24.7932C144.295 25.1116 144.344 25.4257 144.441 25.7355C144.547 26.0367 144.724 26.2862 144.971 26.4841C145.228 26.6821 145.586 26.781 146.045 26.781Z" fill="black"/>
<path d="M139.169 27.5047C138.479 27.5047 137.861 27.3671 137.313 27.0917C136.765 26.8077 136.327 26.3861 136 25.8267C135.682 25.2674 135.528 24.579 135.536 23.7615C135.536 22.9354 135.691 22.2427 136 21.6833C136.319 21.1154 136.756 20.6894 137.313 20.4054C137.87 20.1215 138.506 19.9795 139.222 19.9795C140.141 19.9795 140.892 20.2204 141.475 20.7023C142.058 21.1756 142.43 21.8296 142.589 22.6643H141.7C141.586 22.0103 141.294 21.5284 140.826 21.2186C140.357 20.9089 139.823 20.754 139.222 20.754C138.338 20.754 137.644 21.0121 137.14 21.5284C136.637 22.0361 136.385 22.7633 136.385 23.7098C136.385 24.6994 136.628 25.4524 137.114 25.9687C137.609 26.4764 138.298 26.7303 139.182 26.7303C139.845 26.7303 140.41 26.5754 140.879 26.2656C141.347 25.9472 141.634 25.4653 141.74 24.8199H142.642C142.483 25.646 142.107 26.3 141.515 26.7819C140.932 27.2638 140.15 27.5047 139.169 27.5047Z" fill="black"/>
<path d="M130.254 27.3754C129.927 27.3754 129.697 27.2893 129.564 27.1172C129.441 26.9451 129.379 26.7085 129.379 26.4073V22.7415H128.53V22.1219C128.813 22.1219 129.021 22.1004 129.153 22.0574C129.295 22.0058 129.383 21.8853 129.418 21.696C129.454 21.5066 129.471 21.1969 129.471 20.7666H130.201V22.1219H131.447V22.7415H130.201V26.7042H131.46V27.3754H130.254Z" fill="black"/>
<path d="M122.984 27.3746V22.1211H123.713L123.859 23.4248H123.886C123.895 23.3818 123.934 23.2914 124.005 23.1537C124.076 23.016 124.182 22.8697 124.323 22.7149C124.473 22.5514 124.668 22.4137 124.906 22.3018C125.145 22.1813 125.45 22.1211 125.821 22.1211C126.29 22.1211 126.656 22.2028 126.921 22.3663C127.195 22.5298 127.399 22.7493 127.531 23.0246C127.664 23.2914 127.748 23.5797 127.783 23.8895C127.818 24.1992 127.836 24.4961 127.836 24.7801V27.3746H127.014V24.7801C127.014 24.2122 126.913 23.7518 126.709 23.399C126.515 23.0462 126.126 22.8697 125.543 22.8697C125.145 22.8697 124.818 22.9644 124.562 23.1537C124.314 23.3344 124.133 23.5797 124.018 23.8895C123.912 24.1906 123.859 24.5219 123.859 24.8834V27.3746H122.984Z" fill="black"/>
<path d="M119.456 27.5039C118.864 27.5039 118.373 27.3748 117.985 27.1166C117.605 26.8499 117.322 26.51 117.136 26.0969C116.959 25.6753 116.871 25.2407 116.871 24.7932C116.871 24.3027 116.968 23.8553 117.163 23.4508C117.366 23.0378 117.658 22.7108 118.038 22.4698C118.426 22.2289 118.89 22.1084 119.429 22.1084C120.119 22.1084 120.693 22.3278 121.153 22.7667C121.612 23.197 121.86 23.7778 121.895 24.5092C121.904 24.5437 121.908 24.5953 121.908 24.6641C121.908 24.7244 121.908 24.7803 121.908 24.8319H117.693C117.693 25.4429 117.843 25.9248 118.144 26.2776C118.453 26.6218 118.886 26.7939 119.443 26.7939C119.858 26.7939 120.212 26.6907 120.503 26.4841C120.804 26.2776 120.989 25.9979 121.06 25.6451H121.895C121.807 26.1787 121.546 26.6218 121.113 26.9746C120.68 27.3275 120.128 27.5039 119.456 27.5039ZM117.719 24.3802H121.033C121.033 24.1995 120.98 23.9843 120.874 23.7348C120.777 23.4852 120.609 23.2701 120.371 23.0894C120.141 22.9001 119.823 22.8054 119.416 22.8054C119.045 22.8054 118.74 22.8829 118.502 23.0378C118.263 23.1927 118.082 23.3906 117.958 23.6315C117.834 23.8725 117.755 24.122 117.719 24.3802Z" fill="black"/>
<path d="M108.254 27.3746V22.1211H108.983L109.036 23.4248H109.063C109.08 23.3645 109.12 23.2656 109.182 23.1279C109.244 22.9816 109.341 22.831 109.473 22.6761C109.606 22.5212 109.778 22.3922 109.99 22.2889C110.203 22.177 110.472 22.1211 110.799 22.1211C111.294 22.1211 111.656 22.2545 111.886 22.5212C112.125 22.788 112.284 23.0892 112.363 23.4248H112.39C112.416 23.3645 112.465 23.2656 112.536 23.1279C112.606 22.9816 112.712 22.831 112.854 22.6761C112.995 22.5212 113.176 22.3922 113.397 22.2889C113.627 22.177 113.905 22.1211 114.232 22.1211C114.577 22.1211 114.86 22.1899 115.081 22.3276C115.302 22.4567 115.47 22.6331 115.584 22.8568C115.708 23.072 115.797 23.3 115.85 23.541C115.903 23.7819 115.933 24.0142 115.942 24.238C115.951 24.4617 115.956 24.6424 115.956 24.7801V27.3746H115.213V24.7801C115.213 24.6424 115.204 24.466 115.187 24.2509C115.169 24.0358 115.125 23.8249 115.054 23.6184C114.983 23.4033 114.86 23.2269 114.683 23.0892C114.515 22.9429 114.272 22.8697 113.954 22.8697C113.6 22.8697 113.318 22.9644 113.106 23.1537C112.893 23.343 112.739 23.5926 112.642 23.9024C112.544 24.2036 112.496 24.5305 112.496 24.8834V27.3746H111.753V24.7801C111.753 24.6424 111.745 24.466 111.727 24.2509C111.709 24.0358 111.665 23.8249 111.594 23.6184C111.524 23.4033 111.4 23.2269 111.223 23.0892C111.055 22.9429 110.812 22.8697 110.494 22.8697C110.141 22.8697 109.858 22.9644 109.646 23.1537C109.434 23.343 109.279 23.5926 109.182 23.9024C109.085 24.2036 109.036 24.5305 109.036 24.8834V27.3746H108.254Z" fill="black"/>
<path d="M104.725 27.5039C104.132 27.5039 103.642 27.3748 103.253 27.1166C102.873 26.8499 102.59 26.51 102.405 26.0969C102.228 25.6753 102.14 25.2407 102.14 24.7932C102.14 24.3027 102.237 23.8553 102.431 23.4508C102.635 23.0378 102.926 22.7108 103.306 22.4698C103.695 22.2289 104.159 22.1084 104.698 22.1084C105.387 22.1084 105.962 22.3278 106.421 22.7667C106.881 23.197 107.128 23.7778 107.164 24.5092C107.172 24.5437 107.177 24.5953 107.177 24.6641C107.177 24.7244 107.177 24.7803 107.177 24.8319H102.962C102.962 25.4429 103.112 25.9248 103.412 26.2776C103.722 26.6218 104.155 26.7939 104.711 26.7939C105.127 26.7939 105.48 26.6907 105.772 26.4841C106.072 26.2776 106.258 25.9979 106.329 25.6451H107.164C107.075 26.1787 106.815 26.6218 106.382 26.9746C105.949 27.3275 105.396 27.5039 104.725 27.5039ZM102.988 24.3802H106.302C106.302 24.1995 106.249 23.9843 106.143 23.7348C106.046 23.4852 105.878 23.2701 105.639 23.0894C105.409 22.9001 105.091 22.8054 104.685 22.8054C104.314 22.8054 104.009 22.8829 103.77 23.0378C103.532 23.1927 103.35 23.3906 103.227 23.6315C103.103 23.8725 103.023 24.122 102.988 24.3802Z" fill="black"/>
<path d="M97.5789 29.5431V28.7557H100.27V26.2129H100.243C100.226 26.2559 100.177 26.3462 100.097 26.4839C100.027 26.6216 99.9119 26.7679 99.7528 26.9228C99.6026 27.0777 99.4038 27.2154 99.1563 27.3358C98.9177 27.4477 98.6261 27.5036 98.2814 27.5036C97.76 27.5036 97.3226 27.3875 96.9691 27.1551C96.6244 26.9142 96.3637 26.5915 96.187 26.1871C96.0102 25.7826 95.9219 25.3265 95.9219 24.8188C95.9219 24.0271 96.1207 23.3818 96.5184 22.8827C96.9249 22.3749 97.517 22.1211 98.2947 22.1211C98.657 22.1211 98.9575 22.1813 99.1961 22.3018C99.4435 22.4137 99.6379 22.5514 99.7793 22.7149C99.9296 22.8784 100.04 23.0289 100.111 23.1666C100.181 23.3043 100.226 23.3947 100.243 23.4377H100.27V22.1211H101.145V28.2781C101.145 28.6912 101.065 29.0053 100.906 29.2204C100.747 29.4355 100.46 29.5431 100.044 29.5431H97.5789ZM98.467 26.7679C98.9972 26.7679 99.4258 26.5958 99.7528 26.2516C100.08 25.8988 100.243 25.4212 100.243 24.8188C100.243 24.2251 100.089 23.7561 99.7793 23.4119C99.47 23.0591 99.0591 22.8827 98.5465 22.8827C98.1224 22.8827 97.7777 22.9773 97.5126 23.1666C97.2563 23.3473 97.0663 23.584 96.9426 23.8766C96.8189 24.1691 96.757 24.4832 96.757 24.8188C96.757 25.1458 96.81 25.4599 96.9161 25.7611C97.0309 26.0537 97.2121 26.2946 97.4596 26.4839C97.7158 26.6732 98.0517 26.7679 98.467 26.7679Z" fill="black"/>
<path d="M92.4918 27.4916C91.9969 27.4916 91.5904 27.3754 91.2722 27.1431C90.9541 26.9021 90.7155 26.5794 90.5564 26.175C90.4062 25.7705 90.3311 25.3102 90.3311 24.7939C90.3311 24.0022 90.5078 23.3525 90.8613 22.8448C91.2236 22.3285 91.7671 22.0703 92.4918 22.0703C92.8629 22.0703 93.1722 22.1349 93.4197 22.2639C93.676 22.3844 93.8792 22.535 94.0294 22.7157C94.1885 22.8964 94.3034 23.0685 94.3741 23.232H94.3874V22.1219H95.2622V27.3754H94.5332L94.4006 26.3557H94.3741C94.2946 26.5278 94.1797 26.7042 94.0294 26.8849C93.8792 27.057 93.676 27.2033 93.4197 27.3238C93.1722 27.4357 92.8629 27.4916 92.4918 27.4916ZM92.8232 26.7558C93.3711 26.7558 93.7643 26.5794 94.0029 26.2266C94.2504 25.8738 94.3741 25.4005 94.3741 24.8068C94.3741 24.17 94.246 23.6838 93.9897 23.3482C93.7422 23.0126 93.3534 22.8448 92.8232 22.8448C92.2399 22.8448 91.8201 23.0341 91.5639 23.4127C91.3164 23.7827 91.1927 24.2431 91.1927 24.7939C91.1927 25.3704 91.3208 25.8437 91.5771 26.2137C91.8334 26.5751 92.2487 26.7558 92.8232 26.7558Z" fill="black"/>
<path d="M84.6797 27.3746V22.1211H85.4088L85.5546 23.4248H85.5811C85.5899 23.3818 85.6297 23.2914 85.7004 23.1537C85.7711 23.016 85.8771 22.8697 86.0185 22.7149C86.1688 22.5514 86.3632 22.4137 86.6018 22.3018C86.8404 22.1813 87.1453 22.1211 87.5164 22.1211C87.9848 22.1211 88.3516 22.2028 88.6167 22.3663C88.8906 22.5298 89.0939 22.7493 89.2265 23.0246C89.359 23.2914 89.443 23.5797 89.4783 23.8895C89.5137 24.1992 89.5313 24.4961 89.5313 24.7801V27.3746H88.7095V24.7801C88.7095 24.2122 88.6078 23.7518 88.4046 23.399C88.2102 23.0462 87.8213 22.8697 87.2381 22.8697C86.8404 22.8697 86.5134 22.9644 86.2571 23.1537C86.0097 23.3344 85.8285 23.5797 85.7136 23.8895C85.6076 24.1906 85.5546 24.5219 85.5546 24.8834V27.3746H84.6797Z" fill="black"/>
<path d="M80.9175 27.4916C80.4227 27.4916 80.0161 27.3754 79.698 27.1431C79.3799 26.9021 79.1413 26.5794 78.9822 26.175C78.832 25.7705 78.7568 25.3102 78.7568 24.7939C78.7568 24.0022 78.9336 23.3525 79.2871 22.8448C79.6494 22.3285 80.1929 22.0703 80.9175 22.0703C81.2887 22.0703 81.598 22.1349 81.8455 22.2639C82.1017 22.3844 82.305 22.535 82.4552 22.7157C82.6143 22.8964 82.7292 23.0685 82.7999 23.232H82.8131V22.1219H83.688V27.3754H82.959L82.8264 26.3557H82.7999C82.7203 26.5278 82.6055 26.7042 82.4552 26.8849C82.305 27.057 82.1017 27.2033 81.8455 27.3238C81.598 27.4357 81.2887 27.4916 80.9175 27.4916ZM81.2489 26.7558C81.7969 26.7558 82.1901 26.5794 82.4287 26.2266C82.6762 25.8738 82.7999 25.4005 82.7999 24.8068C82.7999 24.17 82.6717 23.6838 82.4155 23.3482C82.168 23.0126 81.7792 22.8448 81.2489 22.8448C80.6657 22.8448 80.2459 23.0341 79.9896 23.4127C79.7422 23.7827 79.6185 24.2431 79.6185 24.7939C79.6185 25.3704 79.7466 25.8437 80.0029 26.2137C80.2592 26.5751 80.6745 26.7558 81.2489 26.7558Z" fill="black"/>
<path d="M69.9541 27.3774V20.1104H71.4255L73.8513 27.0031H73.8778L76.2639 20.1104H77.7353V27.3774H76.8737L76.9134 20.5363H76.8869L74.4744 27.3774H73.215L70.8025 20.5363H70.776L70.8157 27.3774H69.9541Z" fill="black"/>
<path d="M64.2457 27.3754C63.9187 27.3754 63.689 27.2893 63.5564 27.1172C63.4327 26.9451 63.3708 26.7085 63.3708 26.4073V22.7415H62.5225V22.1219C62.8053 22.1219 63.0129 22.1004 63.1455 22.0574C63.2869 22.0058 63.3753 21.8853 63.4106 21.696C63.446 21.5066 63.4636 21.1969 63.4636 20.7666H64.1927V22.1219H65.4388V22.7415H64.1927V26.7042H65.452V27.3754H64.2457Z" fill="black"/>
<path d="M59.3642 27.5039C58.7721 27.5039 58.2816 27.3748 57.8928 27.1166C57.5128 26.8499 57.23 26.51 57.0444 26.0969C56.8677 25.6753 56.7793 25.2407 56.7793 24.7932C56.7793 24.3027 56.8765 23.8553 57.0709 23.4508C57.2742 23.0378 57.5658 22.7108 57.9458 22.4698C58.3347 22.2289 58.7986 22.1084 59.3377 22.1084C60.027 22.1084 60.6014 22.3278 61.0609 22.7667C61.5205 23.197 61.7679 23.7778 61.8033 24.5092C61.8121 24.5437 61.8165 24.5953 61.8165 24.6641C61.8165 24.7244 61.8165 24.7803 61.8165 24.8319H57.6012C57.6012 25.4429 57.7514 25.9248 58.0519 26.2776C58.3612 26.6218 58.7942 26.7939 59.3509 26.7939C59.7663 26.7939 60.1198 26.6907 60.4114 26.4841C60.7119 26.2776 60.8975 25.9979 60.9682 25.6451H61.8033C61.7149 26.1787 61.4542 26.6218 61.0212 26.9746C60.5882 27.3275 60.0358 27.5039 59.3642 27.5039ZM57.6277 24.3802H60.9416C60.9416 24.1995 60.8886 23.9843 60.7826 23.7348C60.6854 23.4852 60.5175 23.2701 60.2789 23.0894C60.0491 22.9001 59.7309 22.8054 59.3244 22.8054C58.9533 22.8054 58.6484 22.8829 58.4098 23.0378C58.1712 23.1927 57.99 23.3906 57.8663 23.6315C57.7426 23.8725 57.663 24.122 57.6277 24.3802Z" fill="black"/>
<path d="M53.7262 27.5052C53.2136 27.5052 52.7894 27.402 52.4536 27.1954C52.1266 26.9803 51.8792 26.7308 51.7113 26.4468C51.5522 26.1628 51.4727 25.909 51.4727 25.6852H52.2945C52.2945 25.6938 52.2989 25.7584 52.3078 25.8788C52.3255 25.9993 52.3741 26.137 52.4536 26.2919C52.5331 26.4468 52.6701 26.5845 52.8645 26.7049C53.0589 26.8168 53.3417 26.8727 53.7129 26.8727C54.1106 26.8727 54.4508 26.8039 54.7336 26.6662C55.0252 26.5285 55.1666 26.3134 55.1578 26.0208C55.1578 25.7713 55.0694 25.582 54.8927 25.4529C54.7248 25.3152 54.5038 25.2119 54.2299 25.1431C53.9559 25.0656 53.6687 24.9925 53.3682 24.9237C53.0678 24.8548 52.7806 24.7688 52.5066 24.6655C52.2415 24.5536 52.025 24.3987 51.8571 24.2008C51.6892 24.0029 51.6052 23.7275 51.6052 23.3747C51.6052 22.9445 51.8041 22.6046 52.2017 22.355C52.5994 22.0969 53.1075 21.9678 53.7262 21.9678C54.0708 21.9678 54.4199 22.0237 54.7734 22.1356C55.1269 22.2388 55.4185 22.4238 55.6483 22.6906C55.878 22.9488 55.9841 23.3145 55.9664 23.7878H55.171C55.1887 23.4608 55.1136 23.2155 54.9457 23.052C54.7778 22.8885 54.5745 22.781 54.3359 22.7293C54.1062 22.6691 53.8941 22.639 53.6996 22.639C53.3196 22.639 53.0059 22.7078 52.7585 22.8455C52.5199 22.9832 52.4006 23.1768 52.4006 23.4264C52.4006 23.6673 52.4845 23.8523 52.6524 23.9814C52.8292 24.1019 53.0501 24.2008 53.3152 24.2783C53.5892 24.3471 53.8764 24.416 54.1769 24.4848C54.4862 24.545 54.7778 24.6311 55.0517 24.743C55.3257 24.8548 55.5466 25.014 55.7145 25.2205C55.8913 25.4271 55.9797 25.711 55.9797 26.0725C55.9797 26.5716 55.7631 26.9373 55.3301 27.1696C54.8971 27.3934 54.3624 27.5052 53.7262 27.5052Z" fill="black"/>
<path d="M48.4576 27.5052C47.945 27.5052 47.5209 27.402 47.185 27.1954C46.8581 26.9803 46.6106 26.7308 46.4427 26.4468C46.2836 26.1628 46.2041 25.909 46.2041 25.6852H47.026C47.026 25.6938 47.0304 25.7584 47.0392 25.8788C47.0569 25.9993 47.1055 26.137 47.185 26.2919C47.2646 26.4468 47.4016 26.5845 47.596 26.7049C47.7904 26.8168 48.0732 26.8727 48.4443 26.8727C48.842 26.8727 49.1823 26.8039 49.4651 26.6662C49.7567 26.5285 49.8981 26.3134 49.8892 26.0208C49.8892 25.7713 49.8009 25.582 49.6241 25.4529C49.4562 25.3152 49.2353 25.2119 48.9613 25.1431C48.6874 25.0656 48.4002 24.9925 48.0997 24.9237C47.7992 24.8548 47.512 24.7688 47.2381 24.6655C46.9729 24.5536 46.7564 24.3987 46.5885 24.2008C46.4206 24.0029 46.3367 23.7275 46.3367 23.3747C46.3367 22.9445 46.5355 22.6046 46.9332 22.355C47.3309 22.0969 47.839 21.9678 48.4576 21.9678C48.8023 21.9678 49.1513 22.0237 49.5048 22.1356C49.8583 22.2388 50.1499 22.4238 50.3797 22.6906C50.6095 22.9488 50.7155 23.3145 50.6978 23.7878H49.9025C49.9202 23.4608 49.8451 23.2155 49.6771 23.052C49.5092 22.8885 49.306 22.781 49.0674 22.7293C48.8376 22.6691 48.6255 22.639 48.4311 22.639C48.0511 22.639 47.7374 22.7078 47.4899 22.8455C47.2513 22.9832 47.132 23.1768 47.132 23.4264C47.132 23.6673 47.216 23.8523 47.3839 23.9814C47.5606 24.1019 47.7816 24.2008 48.0467 24.2783C48.3206 24.3471 48.6078 24.416 48.9083 24.4848C49.2176 24.545 49.5092 24.6311 49.7832 24.743C50.0571 24.8548 50.2781 25.014 50.446 25.2205C50.6227 25.4271 50.7111 25.711 50.7111 26.0725C50.7111 26.5716 50.4946 26.9373 50.0616 27.1696C49.6285 27.3934 49.0939 27.5052 48.4576 27.5052Z" fill="black"/>
<path d="M38.8867 27.3774L41.5114 20.1104H42.9165L45.5809 27.3774H44.6795L43.8709 25.1057H40.5967L39.7881 27.3774H38.8867ZM42.2405 20.4718L40.8353 24.4086H43.6323L42.2405 20.4718Z" fill="black"/>
</svg>
