<svg width="47" height="47" viewBox="0 0 47 47" fill="none" xmlns="http://www.w3.org/2000/svg">
<rect width="47" height="47" rx="8" fill="#F1EFE9"/>
<path d="M24.665 32.4141V11.1924H27.1151V20.8797H27.1905C27.2408 20.7541 27.3539 20.4902 27.5298 20.0882C27.7308 19.6861 28.0324 19.2589 28.4344 18.8066C28.8365 18.3291 29.3768 17.927 30.0553 17.6004C30.7338 17.2485 31.5882 17.0726 32.6185 17.0726C33.9252 17.0726 34.968 17.3239 35.7471 17.8265C36.5261 18.304 37.104 18.9448 37.481 19.7489C37.883 20.5279 38.1469 21.3697 38.2725 22.2744C38.3982 23.1791 38.461 24.0334 38.461 24.8376V32.4141H36.0863V24.8376C36.0863 23.1791 35.7973 21.8346 35.2193 20.8043C34.6665 19.774 33.5734 19.2589 31.94 19.2589C30.784 19.2589 29.8542 19.5353 29.1506 20.0882C28.447 20.6159 27.9318 21.3321 27.6052 22.2367C27.2785 23.1162 27.1151 24.0837 27.1151 25.1391V32.4141H24.665Z" fill="#64714F"/>
<path d="M12.5257 32.4141H10.1133V11.1924H12.5257V20.5028H24.5877V11.1924H26.9625V32.4141H24.5877V22.4629H12.5257V32.4141Z" fill="#64714F"/>
</svg>
